<svg xmlns="http://www.w3.org/2000/svg" viewBox="0 0 64 64" role="img" aria-label="Fit frame favicon">
  <defs>
    <linearGradient id="bg" x1="12" y1="4" x2="52" y2="60" gradientUnits="userSpaceOnUse">
      <stop stop-color="#FFFFFF"/>
      <stop offset="1" stop-color="#E7F1FF"/>
    </linearGradient>
  </defs>
  <rect width="64" height="64" rx="16" fill="url(#bg)"/>
  <path d="M18 16h28a4 4 0 0 1 4 4v24a4 4 0 0 1-4 4H18a4 4 0 0 1-4-4V20a4 4 0 0 1 4-4z" fill="#1A1550"/>
  <path d="M22 24h20M22 32h12M22 40h18" stroke="#9FD2FF" stroke-width="4" stroke-linecap="round"/>
  <path d="M47 10v10M42 15h10" stroke="#FF644E" stroke-width="5" stroke-linecap="round"/>
  <path d="M39 37 50 26" stroke="#00D4AA" stroke-width="5" stroke-linecap="round"/>
</svg>
